<svg width="32" height="32" viewBox="0 0 32 32" fill="none" xmlns="http://www.w3.org/2000/svg">
<path d="M27.2796 15.9893V15.9106C27.2828 13.7426 26.6445 11.622 25.445 9.81597L25.4703 9.8573L9.79431 25.5106C11.6124 26.7233 13.7502 27.3675 15.9356 27.3613H15.9703H16.0076C17.5325 27.3632 19.0409 27.0457 20.4356 26.4293L20.3663 26.4573C24.465 24.704 27.2836 20.7053 27.2836 16.048V15.988V15.9906L27.2796 15.9893ZM6.51164 22.2053L22.209 6.5293C20.4006 5.2903 18.2584 4.63002 16.0663 4.63597H15.9676H15.973H15.8876C13.9022 4.63292 11.953 5.16688 10.2463 6.1813L10.297 6.1533C6.90498 8.16664 4.66631 11.812 4.66631 15.9786C4.66631 18.2933 5.35698 20.448 6.54364 22.2453L6.51698 22.2026L6.51164 22.2053ZM31.933 15.9893V16.036C31.933 18.2733 31.4663 20.4 30.625 22.3266L30.665 22.2253C28.209 28.0386 22.5556 32.0426 15.9663 32.0426C9.37698 32.0426 3.72364 28.0373 1.30764 22.3293L1.26898 22.2253C0.467643 20.3866 0.000976562 18.2453 0.000976562 15.9933C0.000976562 13.7413 0.467643 11.6 1.30898 9.65864L1.26898 9.7613C3.72498 3.94797 9.37831 -0.0560303 15.9676 -0.0560303C22.557 -0.0560303 28.2103 3.9493 30.6263 9.6573L30.665 9.7613C31.509 11.7101 31.9411 13.8123 31.9343 15.936V15.9906V15.988L31.933 15.9893Z" fill="#002B6E"/>
</svg>
