<svg width="41" height="38" viewBox="0 0 41 38" fill="none" xmlns="http://www.w3.org/2000/svg">
<path d="M20.501 0C23.6836 0 26.7358 1.26428 28.9863 3.51472C31.2367 5.76515 32.501 8.8174 32.501 12V14H40.501V18H38.167L36.653 36.166C36.6114 36.6658 36.3835 37.1317 36.0145 37.4714C35.6456 37.811 35.1625 37.9997 34.661 38H6.34098C5.83912 38.0002 5.35553 37.8118 4.98615 37.472C4.61678 37.1323 4.38863 36.6661 4.34698 36.166L2.83298 18H0.500977V14H8.50098V12C8.50098 8.8174 9.76526 5.76515 12.0157 3.51472C14.2661 1.26428 17.3184 0 20.501 0ZM22.501 22H18.501V30H22.501V22ZM14.501 22H10.501V30H14.501V22ZM30.501 22H26.501V30H30.501V22ZM20.501 4C18.4485 4 16.4745 4.78887 14.9874 6.20345C13.5002 7.61802 12.6136 9.55008 12.511 11.6L12.501 12V14H28.501V12C28.501 9.94752 27.7121 7.97354 26.2975 6.48638C24.883 4.99921 22.9509 4.11262 20.901 4.01L20.501 4Z" fill="#113569"/>
</svg>
