<svg width="38" height="38" viewBox="0 0 38 38" fill="none" xmlns="http://www.w3.org/2000/svg">
<path d="M36.6225 9.50664L28.2431 1.12914C27.9646 0.850487 27.6338 0.629448 27.2698 0.478641C26.9058 0.327834 26.5156 0.250214 26.1216 0.250214C25.7276 0.250214 25.3374 0.327834 24.9734 0.478641C24.6093 0.629448 24.2786 0.850487 24 1.12914L0.87939 24.2498C0.599602 24.5273 0.377778 24.8577 0.226813 25.2218C0.0758491 25.5858 -0.00124395 25.9763 1.5178e-05 26.3704V34.7498C1.5178e-05 35.5454 0.316086 36.3085 0.878695 36.8711C1.4413 37.4337 2.20437 37.7498 3.00001 37.7498H34.5C34.8978 37.7498 35.2794 37.5917 35.5607 37.3104C35.842 37.0291 36 36.6476 36 36.2498C36 35.8519 35.842 35.4704 35.5607 35.1891C35.2794 34.9078 34.8978 34.7498 34.5 34.7498H15.6225L36.6225 13.7498C36.9012 13.4712 37.1222 13.1404 37.273 12.7764C37.4238 12.4124 37.5014 12.0222 37.5014 11.6282C37.5014 11.2342 37.4238 10.844 37.273 10.48C37.1222 10.116 36.9012 9.78522 36.6225 9.50664ZM19.5 9.87039L22.6294 12.9998L6.75001 28.8791L3.62064 25.7498L19.5 9.87039ZM3.00001 34.7498V29.3704L8.37939 34.7498H3.00001ZM12 34.1291L8.87251 30.9998L24.75 15.1204L27.8794 18.2498L12 34.1291ZM30 16.1291L21.6225 7.74976L26.1225 3.24976L34.5 11.6291L30 16.1291Z" fill="#113569"/>
</svg>
