<svg width="20" height="20" viewBox="0 0 20 20" fill="none" xmlns="http://www.w3.org/2000/svg">
<path d="M10.1341 0.625C7.58808 0.625 7.26849 0.636156 6.26855 0.681625C5.27049 0.727375 4.58921 0.885344 3.99314 1.11719C3.37646 1.35662 2.85343 1.67697 2.33236 2.19822C1.81083 2.71937 1.49049 3.24241 1.2503 3.85881C1.0178 4.45506 0.859644 5.13662 0.814738 6.13422C0.770019 7.13425 0.758301 7.45394 0.758301 10.0001C0.758301 12.5463 0.769551 12.8648 0.814926 13.8647C0.860863 14.8628 1.01883 15.5441 1.25049 16.1402C1.49011 16.7568 1.81046 17.2799 2.33171 17.8009C2.85268 18.3225 3.37571 18.6436 3.99193 18.883C4.58846 19.1148 5.26983 19.2728 6.26771 19.3186C7.26774 19.364 7.58705 19.3752 10.133 19.3752C12.6794 19.3752 12.9979 19.364 13.9979 19.3186C14.9959 19.2728 15.678 19.1148 16.2745 18.883C16.8909 18.6436 17.4132 18.3225 17.934 17.8009C18.4556 17.2799 18.7758 16.7568 19.0161 16.1404C19.2466 15.5441 19.4048 14.8626 19.4517 13.8649C19.4966 12.865 19.5083 12.5463 19.5083 10.0001C19.5083 7.45394 19.4966 7.13444 19.4517 6.13441C19.4048 5.13634 19.2466 4.45516 19.0161 3.85909C18.7758 3.24241 18.4556 2.71937 17.934 2.19822C17.4126 1.67678 16.8911 1.35644 16.2739 1.11728C15.6763 0.885344 14.9946 0.727281 13.9965 0.681625C12.9965 0.636156 12.6781 0.625 10.1312 0.625H10.1341ZM9.29311 2.31447C9.54277 2.31409 9.8213 2.31447 10.1341 2.31447C12.6374 2.31447 12.934 2.32347 13.9225 2.36838C14.8366 2.41019 15.3327 2.56291 15.6631 2.69125C16.1007 2.86112 16.4126 3.06428 16.7405 3.3925C17.0686 3.72062 17.2717 4.03309 17.4421 4.47062C17.5704 4.80062 17.7233 5.29675 17.7649 6.21081C17.8098 7.19913 17.8196 7.49594 17.8196 9.99794C17.8196 12.4999 17.8098 12.7968 17.7649 13.7851C17.7231 14.6991 17.5704 15.1952 17.4421 15.5253C17.2722 15.9629 17.0686 16.2744 16.7405 16.6023C16.4124 16.9305 16.1009 17.1335 15.6631 17.3035C15.3331 17.4324 14.8366 17.5848 13.9225 17.6266C12.9342 17.6715 12.6374 17.6812 10.1341 17.6812C7.63083 17.6812 7.33411 17.6715 6.34589 17.6266C5.43183 17.5844 4.93571 17.4317 4.60496 17.3033C4.16752 17.1333 3.85496 16.9303 3.52683 16.6022C3.19871 16.274 2.99564 15.9623 2.8253 15.5246C2.69696 15.1945 2.54405 14.6984 2.50243 13.7843C2.45752 12.796 2.44852 12.4992 2.44852 9.99559C2.44852 7.49209 2.45752 7.19678 2.50243 6.20847C2.54424 5.29441 2.69696 4.79828 2.8253 4.46781C2.99527 4.03028 3.19871 3.71781 3.52693 3.38969C3.85505 3.06156 4.16752 2.85841 4.60505 2.68816C4.93552 2.55925 5.43183 2.40691 6.34589 2.36491C7.21074 2.32581 7.54589 2.31409 9.29311 2.31212V2.31447ZM15.1385 3.87109C14.5174 3.87109 14.0135 4.37453 14.0135 4.99572C14.0135 5.61681 14.5174 6.12072 15.1385 6.12072C15.7596 6.12072 16.2635 5.61681 16.2635 4.99572C16.2635 4.37463 15.7596 3.87072 15.1385 3.87072V3.87109ZM10.1341 5.18556C7.47539 5.18556 5.31971 7.34125 5.31971 10.0001C5.31971 12.6589 7.47539 14.8136 10.1341 14.8136C12.793 14.8136 14.9479 12.6589 14.9479 10.0001C14.9479 7.34134 12.7928 5.18556 10.134 5.18556H10.1341ZM10.1341 6.87503C11.86 6.87503 13.2592 8.27406 13.2592 10.0001C13.2592 11.7259 11.86 13.1252 10.1341 13.1252C8.40821 13.1252 7.00918 11.7259 7.00918 10.0001C7.00918 8.27406 8.40821 6.87503 10.1341 6.87503Z" fill="white"/>
</svg>
