<svg width="25" height="24" viewBox="0 0 25 24" fill="none" xmlns="http://www.w3.org/2000/svg">
<g clip-path="url(#clip0_91_1598)">
<path d="M18.5088 0H5.75879C2.65219 0 0.133789 2.5184 0.133789 5.625V18.375C0.133789 21.4816 2.65219 24 5.75879 24H18.5088C21.6154 24 24.1338 21.4816 24.1338 18.375V5.625C24.1338 2.5184 21.6154 0 18.5088 0Z" fill="url(#paint0_radial_91_1598)"/>
<path d="M18.5088 0H5.75879C2.65219 0 0.133789 2.5184 0.133789 5.625V18.375C0.133789 21.4816 2.65219 24 5.75879 24H18.5088C21.6154 24 24.1338 21.4816 24.1338 18.375V5.625C24.1338 2.5184 21.6154 0 18.5088 0Z" fill="url(#paint1_radial_91_1598)"/>
<path d="M12.1346 2.625C9.58857 2.625 9.26898 2.63616 8.26904 2.68163C7.27098 2.72738 6.5897 2.88534 5.99363 3.11719C5.37695 3.35662 4.85391 3.67697 4.33285 4.19822C3.81132 4.71937 3.49098 5.24241 3.25079 5.85881C3.01829 6.45506 2.86013 7.13662 2.81523 8.13422C2.77051 9.13425 2.75879 9.45394 2.75879 12.0001C2.75879 14.5463 2.77004 14.8648 2.81541 15.8647C2.86135 16.8628 3.01932 17.5441 3.25098 18.1402C3.4906 18.7568 3.81095 19.2799 4.3322 19.8009C4.85316 20.3225 5.3762 20.6436 5.99241 20.883C6.58895 21.1148 7.27032 21.2728 8.2682 21.3186C9.26823 21.364 9.58754 21.3752 12.1335 21.3752C14.6799 21.3752 14.9984 21.364 15.9984 21.3186C16.9964 21.2728 17.6784 21.1148 18.275 20.883C18.8914 20.6436 19.4137 20.3225 19.9345 19.8009C20.4561 19.2799 20.7763 18.7568 21.0166 18.1404C21.247 17.5441 21.4053 16.8626 21.4522 15.8649C21.4971 14.865 21.5088 14.5463 21.5088 12.0001C21.5088 9.45394 21.4971 9.13444 21.4522 8.13441C21.4053 7.13634 21.247 6.45516 21.0166 5.85909C20.7763 5.24241 20.4561 4.71937 19.9345 4.19822C19.4131 3.67678 18.8916 3.35644 18.2744 3.11728C17.6768 2.88534 16.9951 2.72728 15.997 2.68163C14.997 2.63616 14.6786 2.625 12.1317 2.625H12.1346ZM11.2936 4.31447C11.5433 4.31409 11.8218 4.31447 12.1346 4.31447C14.6379 4.31447 14.9345 4.32347 15.923 4.36838C16.837 4.41019 17.3332 4.56291 17.6636 4.69125C18.1012 4.86112 18.4131 5.06428 18.741 5.3925C19.0691 5.72062 19.2722 6.03309 19.4425 6.47062C19.5709 6.80062 19.7238 7.29675 19.7654 8.21081C19.8103 9.19913 19.8201 9.49594 19.8201 11.9979C19.8201 14.4999 19.8103 14.7968 19.7654 15.7851C19.7236 16.6991 19.5709 17.1952 19.4425 17.5253C19.2727 17.9629 19.0691 18.2744 18.741 18.6023C18.4129 18.9305 18.1014 19.1335 17.6636 19.3035C17.3335 19.4324 16.837 19.5848 15.923 19.6266C14.9347 19.6715 14.6379 19.6812 12.1346 19.6812C9.63132 19.6812 9.3346 19.6715 8.34638 19.6266C7.43232 19.5844 6.9362 19.4317 6.60545 19.3033C6.16801 19.1333 5.85545 18.9303 5.52732 18.6022C5.1992 18.274 4.99613 17.9623 4.82579 17.5246C4.69745 17.1945 4.54454 16.6984 4.50291 15.7843C4.45801 14.796 4.44901 14.4992 4.44901 11.9956C4.44901 9.49209 4.45801 9.19678 4.50291 8.20847C4.54473 7.29441 4.69745 6.79828 4.82579 6.46781C4.99576 6.03028 5.1992 5.71781 5.52741 5.38969C5.85554 5.06156 6.16801 4.85841 6.60554 4.68816C6.93601 4.55925 7.43232 4.40691 8.34638 4.36491C9.21123 4.32581 9.54638 4.31409 11.2936 4.31212V4.31447ZM17.139 5.87109C16.5179 5.87109 16.014 6.37453 16.014 6.99572C16.014 7.61681 16.5179 8.12072 17.139 8.12072C17.7601 8.12072 18.264 7.61681 18.264 6.99572C18.264 6.37463 17.7601 5.87072 17.139 5.87072V5.87109ZM12.1346 7.18556C9.47588 7.18556 7.3202 9.34125 7.3202 12.0001C7.3202 14.6589 9.47588 16.8136 12.1346 16.8136C14.7935 16.8136 16.9484 14.6589 16.9484 12.0001C16.9484 9.34134 14.7933 7.18556 12.1344 7.18556H12.1346ZM12.1346 8.87503C13.8605 8.87503 15.2597 10.2741 15.2597 12.0001C15.2597 13.7259 13.8605 15.1252 12.1346 15.1252C10.4087 15.1252 9.00966 13.7259 9.00966 12.0001C9.00966 10.2741 10.4087 8.87503 12.1346 8.87503Z" fill="white"/>
</g>
<defs>
<radialGradient id="paint0_radial_91_1598" cx="0" cy="0" r="1" gradientUnits="userSpaceOnUse" gradientTransform="translate(6.50879 25.8485) rotate(-90) scale(23.7858 22.1227)">
<stop stop-color="#FFDD55"/>
<stop offset="0.1" stop-color="#FFDD55"/>
<stop offset="0.5" stop-color="#FF543E"/>
<stop offset="1" stop-color="#C837AB"/>
</radialGradient>
<radialGradient id="paint1_radial_91_1598" cx="0" cy="0" r="1" gradientUnits="userSpaceOnUse" gradientTransform="translate(-3.8863 1.72884) rotate(78.681) scale(10.6324 43.827)">
<stop stop-color="#3771C8"/>
<stop offset="0.128" stop-color="#3771C8"/>
<stop offset="1" stop-color="#6600FF" stop-opacity="0"/>
</radialGradient>
<clipPath id="clip0_91_1598">
<rect width="24" height="24" fill="white" transform="translate(0.133789)"/>
</clipPath>
</defs>
</svg>
