<svg width="25" height="24" viewBox="0 0 25 24" fill="none" xmlns="http://www.w3.org/2000/svg">
<g clip-path="url(#clip0_91_1610)">
<path d="M22.0693 0.562526H2.56934C2.12689 0.558023 1.70074 0.729221 1.38437 1.03856C1.06801 1.34789 0.887276 1.77009 0.881836 2.21253V21.7913C0.888259 22.2331 1.06942 22.6543 1.38568 22.9628C1.70194 23.2714 2.12754 23.442 2.56934 23.4375H22.0693C22.5118 23.441 22.9377 23.2693 23.2539 22.9597C23.5701 22.6502 23.7509 22.2281 23.7568 21.7857V2.2069C23.7489 1.76577 23.5673 1.34558 23.2513 1.03766C22.9353 0.729747 22.5105 0.558997 22.0693 0.562526Z" fill="#3968AD"/>
<path d="M4.26805 9.1369H7.66367V20.0625H4.26805V9.1369ZM5.9668 3.6994C6.35626 3.6994 6.73697 3.81491 7.06077 4.03133C7.38457 4.24774 7.63691 4.55533 7.78586 4.91518C7.93482 5.27503 7.9737 5.67097 7.89758 6.05293C7.82146 6.43488 7.63377 6.78567 7.35825 7.06093C7.08273 7.33619 6.73175 7.52355 6.34973 7.5993C5.96771 7.67505 5.5718 7.6358 5.21209 7.4865C4.85238 7.3372 4.54503 7.08457 4.32893 6.76057C4.11283 6.43656 3.99768 6.05574 3.99805 5.66628C3.99854 5.14446 4.20619 4.64418 4.57534 4.27537C4.9445 3.90657 5.44498 3.6994 5.9668 3.6994ZM9.79367 9.1369H13.0487V10.6369H13.0937C13.5474 9.77815 14.6537 8.87253 16.3055 8.87253C19.7443 8.86503 20.3818 11.1282 20.3818 14.0625V20.0625H16.9862V14.7469C16.9862 13.4813 16.9637 11.8519 15.2218 11.8519C13.4799 11.8519 13.1837 13.2319 13.1837 14.6644V20.0625H9.79367V9.1369Z" fill="white"/>
</g>
<defs>
<clipPath id="clip0_91_1610">
<rect width="24" height="24" fill="white" transform="translate(0.319336)"/>
</clipPath>
</defs>
</svg>
