<svg width="17" height="18" viewBox="0 0 17 18" fill="none" xmlns="http://www.w3.org/2000/svg">
<path d="M0.268048 6.13684H3.66367V17.0625H0.268048V6.13684ZM1.9668 0.699341C2.35626 0.699341 2.73697 0.814854 3.06077 1.03127C3.38457 1.24768 3.63691 1.55527 3.78586 1.91512C3.93482 2.27497 3.9737 2.67091 3.89758 3.05286C3.82146 3.43482 3.63377 3.78561 3.35825 4.06087C3.08273 4.33613 2.73175 4.52349 2.34973 4.59924C1.96771 4.67499 1.5718 4.63574 1.21209 4.48644C0.85238 4.33714 0.545034 4.08451 0.32893 3.7605C0.112827 3.4365 -0.00232315 3.05568 -0.00195223 2.66622C-0.00145526 2.1444 0.206185 1.64412 0.575344 1.27531C0.944502 0.906504 1.44498 0.699341 1.9668 0.699341ZM5.79367 6.13684H9.04867V7.63684H9.09367C9.54742 6.77809 10.6537 5.87247 12.3055 5.87247C15.7443 5.86497 16.3818 8.12809 16.3818 11.0625V17.0625H12.9862V11.7468C12.9862 10.4812 12.9637 8.85184 11.2218 8.85184C9.47992 8.85184 9.18367 10.2318 9.18367 11.6643V17.0625H5.79367V6.13684Z" fill="white"/>
</svg>
