<svg width="56" height="60" viewBox="0 0 56 60" fill="none" xmlns="http://www.w3.org/2000/svg">
<g clip-path="url(#clip0_29_899)">
<path d="M44.8793 26.9837L42.4856 24.6191C43.2835 23.3488 43.8558 21.8641 44.2024 20.1594L41.4621 19.2355C41.2255 20.5058 40.8679 21.6111 40.3946 22.5514L36.2897 18.4932C36.884 18.1522 37.3957 17.8223 37.8359 17.4978C38.6393 16.9039 39.2336 16.2715 39.6133 15.6117C39.9929 14.9518 40.1855 14.2259 40.1855 13.445C40.1855 12.5487 39.9709 11.7788 39.5472 11.1354C39.1235 10.4921 38.5348 9.99714 37.7809 9.6507C37.027 9.30426 36.1356 9.13379 35.1066 9.13379C34.0006 9.13379 33.0321 9.32625 32.2013 9.70569C31.3704 10.0906 30.7266 10.6295 30.2753 11.3279C29.8241 12.0263 29.5985 12.8346 29.5985 13.7475C29.5985 14.2699 29.6811 14.7758 29.8406 15.2707C30.0057 15.7656 30.2753 16.2715 30.655 16.7939C30.9412 17.1899 31.2933 17.6078 31.7115 18.0532C30.9852 18.4767 30.3524 18.9056 29.8131 19.3235C28.9437 20.0054 28.3109 20.7203 27.9147 21.4626C27.5185 22.2105 27.3149 23.0464 27.3149 23.9812C27.3149 25.0095 27.6121 25.9114 28.2119 26.6977C28.8117 27.4786 29.6315 28.0945 30.6825 28.5454C31.7335 28.9908 32.9166 29.2163 34.2427 29.2163C35.9265 29.2163 37.4452 28.8533 38.8044 28.1275C39.4537 27.781 40.0535 27.3576 40.6092 26.8682L43.0139 29.2493L44.8903 26.9837H44.8793ZM33.3238 12.1968C33.7475 11.8173 34.3418 11.6249 35.1011 11.6249C35.8055 11.6249 36.3502 11.7953 36.7299 12.1418C37.1096 12.4882 37.3022 12.9391 37.3022 13.5C37.3022 13.9125 37.1811 14.3029 36.9335 14.6768C36.6914 15.0508 36.2622 15.4412 35.6569 15.8536C35.3102 16.0846 34.892 16.343 34.3968 16.618C34.0226 16.233 33.7255 15.9031 33.4999 15.6282C33.1917 15.2542 32.9771 14.9188 32.8616 14.6218C32.746 14.3249 32.6855 14.0169 32.6855 13.698C32.6855 13.0821 32.9001 12.5817 33.3238 12.2023V12.1968ZM37.6433 25.5704C36.6914 26.1038 35.6404 26.3678 34.4793 26.3678C33.698 26.3678 33.0211 26.2523 32.4434 26.0158C31.8656 25.7849 31.4144 25.4604 31.1007 25.048C30.7816 24.6356 30.6275 24.1627 30.6275 23.6183C30.6275 23.0738 30.7541 22.5844 31.0072 22.1335C31.2603 21.6881 31.6785 21.2372 32.2563 20.7917C32.6139 20.5113 33.0652 20.2253 33.5879 19.9229L38.6063 24.8885C38.3036 25.147 37.9845 25.3724 37.6433 25.5649V25.5704Z" fill="white"/>
<path d="M24.327 0L15.0056 21.3638L5.78326 0H0.19812L12.3204 27.7151H17.3938L29.4775 0H24.327Z" fill="white"/>
<path d="M24.6847 59.9999H30.0717L17.5533 31.7349H12.4799L0 59.9999H5.31001L8.05581 53.4561H21.9279L24.6847 59.9999ZM9.78913 49.3428L14.9836 36.9754L20.1946 49.3428H9.78913Z" fill="white"/>
<path d="M35.8055 51.9218H43.7182C44.0869 51.9218 44.4445 51.9108 44.8022 51.8943L50.4534 59.9999H56L49.6335 50.921C49.7711 50.866 49.9086 50.8165 50.0407 50.756C51.796 49.9752 53.1497 48.8534 54.1016 47.3906C55.0536 45.9279 55.5268 43.6293 55.5268 41.5946C55.5268 39.56 55.0536 37.8058 54.1016 36.3266C53.1497 34.8473 51.796 33.7145 50.0407 32.9227C48.2854 32.1308 46.1779 31.7349 43.7237 31.7349H23.5071L25.1579 36.0901H43.4816C45.7542 36.0901 47.4655 36.563 48.61 37.5144C49.7601 38.4657 50.3323 39.8239 50.3323 41.5946C50.3323 43.3653 49.7601 45.246 48.61 46.2248C47.46 47.2037 45.7487 47.6876 43.4816 47.6876H30.3744L32.2838 52.0043" fill="white"/>
</g>
<defs>
<clipPath id="clip0_29_899">
<rect width="56" height="60" fill="white"/>
</clipPath>
</defs>
</svg>
