<svg width="24" height="24" viewBox="0 0 24 24" fill="none" xmlns="http://www.w3.org/2000/svg">
<g clip-path="url(#clip0_56_379)">
<path d="M24 12C24 5.37262 18.6274 0 12 0C5.37262 0 0 5.37262 0 12C0 17.9895 4.38825 22.954 10.125 23.8542V15.4688H7.07812V12H10.125V9.35625C10.125 6.34875 11.9166 4.6875 14.6576 4.6875C15.9705 4.6875 17.3438 4.92188 17.3438 4.92188V7.875H15.8306C14.3399 7.875 13.875 8.80003 13.875 9.74906V12H17.2031L16.6711 15.4688H13.875V23.8542C19.6117 22.954 24 17.9896 24 12Z" fill="#3968AD"/>
<path d="M16.593 12.7812L17.125 9.3125H13.7969V7.06156C13.7969 6.11244 14.2618 5.1875 15.7525 5.1875H17.2656V2.23438C17.2656 2.23438 15.8924 2 14.5794 2C11.8384 2 10.0469 3.66125 10.0469 6.66875V9.3125H7V12.7812H10.0469V21.1667C10.6671 21.2639 11.294 21.3126 11.9219 21.3125C12.5497 21.3126 13.1766 21.2639 13.7969 21.1667V12.7812H16.593Z" fill="white"/>
</g>
<defs>
<clipPath id="clip0_56_379">
<rect width="24" height="24" fill="white"/>
</clipPath>
</defs>
</svg>
