<svg
          width="21"
          height="20"
          viewBox="0 0 21 20"
          fill="none"
          xmlns="http://www.w3.org/2000/svg"
        >
          <path
            d="M10.3196 0C4.79958 0 0.31958 4.48 0.31958 10C0.31958 15.52 4.79958 20 10.3196 20H15.3196V18H10.3196C5.97958 18 2.31958 14.34 2.31958 10C2.31958 5.66 5.97958 2 10.3196 2C14.6596 2 18.3196 5.66 18.3196 10V11.43C18.3196 12.22 17.6096 13 16.8196 13C16.0296 13 15.3196 12.22 15.3196 11.43V10C15.3196 7.24 13.0796 5 10.3196 5C7.55958 5 5.31958 7.24 5.31958 10C5.31958 12.76 7.55958 15 10.3196 15C11.6996 15 12.9596 14.44 13.8596 13.53C14.5096 14.42 15.6296 15 16.8196 15C18.7896 15 20.3196 13.4 20.3196 11.43V10C20.3196 4.48 15.8396 0 10.3196 0ZM10.3196 13C8.65958 13 7.31958 11.66 7.31958 10C7.31958 8.34 8.65958 7 10.3196 7C11.9796 7 13.3196 8.34 13.3196 10C13.3196 11.66 11.9796 13 10.3196 13Z"
            fill="white"
          />
        </svg>