<svg width="31" height="36" viewBox="0 0 31 36" fill="none" xmlns="http://www.w3.org/2000/svg">
<g clip-path="url(#clip0_96_2248)">
<path d="M29.4911 7.63393C29.8661 8.00893 30.1875 8.51786 30.4554 9.16071C30.7232 9.80357 30.8571 10.3929 30.8571 10.9286V34.0714C30.8571 34.6071 30.6696 35.0625 30.2946 35.4375C29.9196 35.8125 29.4643 36 28.9286 36H1.92857C1.39286 36 0.9375 35.8125 0.5625 35.4375C0.1875 35.0625 0 34.6071 0 34.0714V1.92857C0 1.39286 0.1875 0.9375 0.5625 0.5625C0.9375 0.1875 1.39286 0 1.92857 0H19.9286C20.4643 0 21.0536 0.133929 21.6964 0.401786C22.3393 0.669643 22.8482 0.991071 23.2232 1.36607L29.4911 7.63393ZM20.5714 2.73214V10.2857H28.125C27.9911 9.89732 27.8438 9.62277 27.683 9.46205L21.3951 3.17411C21.2344 3.01339 20.9598 2.86607 20.5714 2.73214ZM28.2857 33.4286V12.8571H19.9286C19.3929 12.8571 18.9375 12.6696 18.5625 12.2946C18.1875 11.9196 18 11.4643 18 10.9286V2.57143H2.57143V33.4286H28.2857ZM17.9598 21.5156C18.4018 21.8638 18.9643 22.2388 19.6473 22.6406C20.4375 22.5469 21.221 22.5 21.9978 22.5C23.9665 22.5 25.1518 22.8281 25.5536 23.4844C25.7679 23.779 25.7812 24.1272 25.5938 24.529C25.5938 24.5424 25.5871 24.5558 25.5737 24.5692L25.5335 24.6094V24.6295C25.4531 25.1384 24.9777 25.3929 24.1071 25.3929C23.4643 25.3929 22.6942 25.2589 21.7969 24.9911C20.8996 24.7232 20.029 24.3683 19.1853 23.9263C16.2254 24.2478 13.6004 24.8036 11.3103 25.5938C9.26116 29.1027 7.64062 30.8571 6.44866 30.8571C6.24777 30.8571 6.06027 30.8103 5.88616 30.7165L5.40402 30.4754C5.39062 30.4621 5.35045 30.4286 5.28348 30.375C5.14955 30.2411 5.10938 30 5.16295 29.6518C5.28348 29.1161 5.65848 28.5033 6.28795 27.8136C6.91741 27.1239 7.80134 26.4777 8.93973 25.875C9.12723 25.7545 9.28125 25.7946 9.40179 25.9955C9.42857 26.0223 9.44196 26.0491 9.44196 26.0759C10.1384 24.9375 10.8549 23.6183 11.5915 22.1183C12.5022 20.2969 13.1987 18.5424 13.6808 16.8549C13.3594 15.7567 13.1551 14.6886 13.0681 13.6507C12.981 12.6127 13.0246 11.7589 13.1987 11.0893C13.346 10.5536 13.6272 10.2857 14.0424 10.2857H14.4844C14.7924 10.2857 15.0268 10.3862 15.1875 10.5871C15.4286 10.8683 15.4888 11.3237 15.3683 11.9531C15.3415 12.0335 15.3147 12.0871 15.2879 12.1138C15.3013 12.154 15.308 12.2076 15.308 12.2746V12.8772C15.2812 14.5246 15.1875 15.8103 15.0268 16.7344C15.7634 18.9308 16.7411 20.5246 17.9598 21.5156ZM6.38839 29.7723C7.08482 29.4509 8.00223 28.3929 9.14062 26.5982C8.45759 27.1339 7.87165 27.6964 7.38281 28.2857C6.89397 28.875 6.5625 29.3705 6.38839 29.7723ZM14.3839 11.2902C14.183 11.8527 14.1696 12.7366 14.3438 13.942C14.3571 13.8482 14.404 13.5536 14.4844 13.058C14.4844 13.0179 14.5312 12.7299 14.625 12.1942C14.6384 12.1406 14.6652 12.0871 14.7054 12.0335C14.692 12.0201 14.6853 12.0067 14.6853 11.9933C14.6719 11.9665 14.6652 11.9464 14.6652 11.933C14.6518 11.6384 14.5647 11.3973 14.404 11.2098C14.404 11.2232 14.3973 11.2366 14.3839 11.25V11.2902ZM11.8929 24.5692C13.7009 23.846 15.6027 23.3036 17.5982 22.942C17.5714 22.9286 17.4844 22.865 17.3371 22.7511C17.1897 22.6373 17.0826 22.5469 17.0156 22.4799C15.9978 21.5826 15.1473 20.404 14.4643 18.9442C14.1027 20.096 13.5469 21.4152 12.7969 22.9018C12.3951 23.6518 12.0938 24.2076 11.8929 24.5692ZM24.8705 24.2478C24.5491 23.9263 23.6116 23.7656 22.058 23.7656C23.0759 24.1406 23.9062 24.3281 24.5491 24.3281C24.7366 24.3281 24.8571 24.3214 24.9107 24.308C24.9107 24.2946 24.8973 24.2746 24.8705 24.2478Z" fill="#113569"/>
</g>
<defs>
<clipPath id="clip0_96_2248">
<rect width="30.8571" height="36" fill="white"/>
</clipPath>
</defs>
</svg>
