<svg
          width="19"
          height="18"
          viewBox="0 0 19 18"
          fill="none"
          xmlns="http://www.w3.org/2000/svg"
        >
          <path
            d="M3.93958 7.79C5.37958 10.62 7.69958 12.93 10.5296 14.38L12.7296 12.18C12.9996 11.91 13.3996 11.82 13.7496 11.94C14.8696 12.31 16.0796 12.51 17.3196 12.51C17.8696 12.51 18.3196 12.96 18.3196 13.51V17C18.3196 17.55 17.8696 18 17.3196 18C7.92958 18 0.31958 10.39 0.31958 1C0.31958 0.45 0.76958 0 1.31958 0H4.81958C5.36958 0 5.81958 0.45 5.81958 1C5.81958 2.25 6.01958 3.45 6.38958 4.57C6.49958 4.92 6.41958 5.31 6.13958 5.59L3.93958 7.79Z"
            fill="white"
          />
        </svg>