<svg width="25" height="24" viewBox="0 0 25 24" fill="none" xmlns="http://www.w3.org/2000/svg">
<g clip-path="url(#clip0_91_1607)">
<path d="M1.64963 10.5628C8.0933 7.75609 12.3891 5.90564 14.537 5.01149C20.6767 2.45854 21.951 2.01515 22.7832 2.00013C22.9662 1.9972 23.3737 2.04243 23.6396 2.25739C23.8606 2.43869 23.9228 2.68386 23.9538 2.85601C23.9815 3.02797 24.0194 3.41991 23.9884 3.72587C23.6569 7.2205 22.2169 15.7009 21.4848 19.6151C21.1775 21.2712 20.5662 21.8265 19.9757 21.8807C18.6912 21.9988 17.7174 21.0326 16.4742 20.218C14.5301 18.9427 13.4319 18.1492 11.543 16.905C9.36062 15.4671 10.7764 14.6766 12.0196 13.3851C12.3442 13.0471 18.0005 7.90354 18.1076 7.43702C18.1214 7.37866 18.1352 7.16111 18.004 7.04646C17.8762 6.93147 17.6863 6.97083 17.5482 7.00191C17.3513 7.04611 14.2469 9.10008 8.22452 13.1635C7.34396 13.7691 6.54627 14.0644 5.828 14.0489C5.04067 14.0319 3.52127 13.6027 2.39207 13.236C1.01079 12.786 -0.0907762 12.5481 0.00591329 11.7839C0.054258 11.3861 0.603316 10.979 1.64963 10.5628Z" fill="white"/>
</g>
<defs>
<clipPath id="clip0_91_1607">
<rect width="24" height="24" fill="white" transform="translate(0.319336)"/>
</clipPath>
</defs>
</svg>
