<svg width="24" height="20" viewBox="0 0 24 20" fill="none" xmlns="http://www.w3.org/2000/svg">
<path d="M1.64963 8.56285C8.0933 5.75609 12.3891 3.90564 14.537 3.01149C20.6767 0.458543 21.951 0.0151523 22.7832 0.000130884C22.9662 -0.00280433 23.3737 0.0424322 23.6396 0.257394C23.8606 0.438686 23.9228 0.683864 23.9538 0.856006C23.9815 1.02797 24.0194 1.41991 23.9884 1.72587C23.6569 5.2205 22.2169 13.7009 21.4848 17.6151C21.1775 19.2712 20.5662 19.8265 19.9757 19.8807C18.6912 19.9988 17.7174 19.0326 16.4742 18.218C14.5301 16.9427 13.4319 16.1492 11.543 14.905C9.36062 13.4671 10.7764 12.6766 12.0196 11.3851C12.3442 11.0471 18.0005 5.90354 18.1076 5.43702C18.1214 5.37866 18.1352 5.16111 18.004 5.04646C17.8762 4.93147 17.6863 4.97083 17.5482 5.00191C17.3513 5.04611 14.2469 7.10008 8.22452 11.1635C7.34396 11.7691 6.54627 12.0644 5.828 12.0489C5.04067 12.0319 3.52127 11.6027 2.39207 11.236C1.01079 10.786 -0.0907762 10.5481 0.00591329 9.7839C0.054258 9.38609 0.603316 8.97896 1.64963 8.56285Z" fill="white"/>
</svg>
