<svg width="20" height="23" viewBox="0 0 20 23" fill="none" xmlns="http://www.w3.org/2000/svg">
<path d="M13.6826 7.6841C15.2288 8.78843 17.1221 9.43817 19.1672 9.43817V6.34192C18.0256 6.09886 17.0151 5.50266 16.2553 4.67334C14.9547 3.86214 14.0176 2.52393 13.7429 0.957642H10.8759V16.6688C10.8693 18.5004 9.38215 19.9834 7.54814 19.9834C6.46747 19.9834 5.50731 19.4686 4.89928 18.6709C3.81349 18.1232 3.06883 16.9987 3.06883 15.7C3.06883 13.8634 4.55848 12.3742 6.39638 12.3742C6.74852 12.3742 7.08791 12.429 7.40629 12.5299V9.39985C3.45936 9.48137 0.285156 12.7046 0.285156 16.6689C0.285156 18.6478 1.07558 20.4418 2.35851 21.7526C3.51589 22.5293 4.90913 22.9824 6.40822 22.9824C10.4257 22.9824 13.6827 19.727 13.6827 15.7114L13.6826 7.6841Z" fill="black"/>
</svg>
