<svg width="18" height="18" viewBox="0 0 18 18" fill="none" xmlns="http://www.w3.org/2000/svg">
<path d="M17.2894 17.6109C17.2248 17.7286 17.1299 17.8267 17.0145 17.8951C16.899 17.9636 16.7674 17.9998 16.6332 18H12.1332C12.007 18 11.8828 17.9681 11.7722 17.9073C11.6615 17.8465 11.5681 17.7587 11.5004 17.6522L7.70443 11.6869L2.18818 17.7544C2.0537 17.8988 1.86772 17.9845 1.67053 17.9927C1.47335 18.0009 1.28087 17.9311 1.13481 17.7984C0.98876 17.6657 0.90091 17.4807 0.890308 17.2836C0.879706 17.0866 0.947207 16.8933 1.07818 16.7456L6.86911 10.3706L1.00036 1.15313C0.928085 1.03973 0.887623 0.908984 0.883216 0.774582C0.878808 0.64018 0.910617 0.507066 0.975312 0.389177C1.04001 0.271288 1.13521 0.172962 1.25095 0.104494C1.36669 0.0360256 1.4987 -6.53095e-05 1.63318 8.87202e-08H6.13318C6.2594 3.91221e-05 6.38358 0.0319361 6.4942 0.0927355C6.60482 0.153535 6.6983 0.24127 6.76599 0.347813L10.5619 6.31312L16.0782 0.245625C16.2126 0.101174 16.3986 0.015547 16.5958 0.00730857C16.793 -0.00092985 16.9855 0.0688843 17.1315 0.201615C17.2776 0.334346 17.3654 0.519295 17.376 0.716365C17.3866 0.913434 17.3191 1.10674 17.1882 1.25438L11.3972 7.62469L17.266 16.8478C17.3379 16.9613 17.378 17.0919 17.3821 17.2262C17.3862 17.3604 17.3542 17.4933 17.2894 17.6109Z" fill="white"/>
</svg>
